<?xml version="1.0" encoding="utf-8"?>
<!-- Generator: Adobe Illustrator 24.1.3, SVG Export Plug-In . SVG Version: 6.00 Build 0)  -->
<svg version="1.1" id="Layer_1" xmlns="http://www.w3.org/2000/svg" xmlns:xlink="http://www.w3.org/1999/xlink" x="0px" y="0px"
	 viewBox="0 0 1080 1080" style="enable-background:new 0 0 1080 1080;" xml:space="preserve">
<style type="text/css">
	.st0{fill-rule:evenodd;clip-rule:evenodd;fill:url(#path4_1_);}
	.st1{fill-rule:evenodd;clip-rule:evenodd;fill:#60C5CE;}
	.st2{fill:#60C5CE;}
	.st3{fill:#505C6D;}
</style>
<g id="XMLID_1_">
	<g id="XMLID_17_">
		<linearGradient id="path4_1_" gradientUnits="userSpaceOnUse" x1="363.0637" y1="643.4741" x2="363.0637" y2="536.7374">
			<stop  offset="0" style="stop-color:#FFFFFF"/>
			<stop  offset="1" style="stop-color:#60C5CE"/>
		</linearGradient>
		<path id="path4" class="st0" d="M359.95,709.48c9.92,0,17.96-7.86,17.96-17.56c0-4.33-1.61-8.29-4.27-11.36l37.49-56.17
			c1.56,0.41,3.2,0.63,4.89,0.63c10.38,0,18.8-8.23,18.8-18.38c0-10.15-8.42-18.38-18.8-18.38c-8.69,0-16,5.76-18.16,13.59h-69.61
			c-2.16-7.83-9.47-13.59-18.16-13.59c-10.38,0-18.8,8.23-18.8,18.38c0,10.15,8.42,18.38,18.8,18.38c1.14,0,2.26-0.1,3.34-0.29
			l34.4,54.21c-3.6,3.21-5.86,7.84-5.86,12.98C341.99,701.62,350.03,709.48,359.95,709.48z M369.22,647.9
			c2.87-10.26-5.74-18.8-16.23-15.99C363.77,631.75,369.73,638.38,369.22,647.9z M318.24,592.87c-12.68-6.13-25.97,2.49-24.91,16.28
			C295.8,595.66,305.93,589.86,318.24,592.87z M425.73,619.67c11-8.7,8.55-24.11-4.71-28.93C432.52,598.58,433.67,610,425.73,619.67
			z M356.34,707.35c14.07,1.43,23.46-11.17,17.56-23.74C376.39,697.11,368.95,705.99,356.34,707.35z M347.29,634.54
			c-6.55-5.76-14.95-12.16-21.72-17.44c1.74-2.45,2.88-5.33,3.23-8.45h68.54c0.23,2.1,0.83,4.1,1.73,5.93
			c-10.93,6.83-20.13,13.56-30.59,20.49c-2.49-3.17-6.53-5.21-10.81-5.21C353.38,629.86,349.79,631.68,347.29,634.54z
			 M322.41,620.54c7.24,5.01,16.18,11.08,23.07,16.66c-4.19,8.13,1.29,17.7,10.76,19.04l0.98,18.32c-1.18,0.18-2.33,0.47-3.43,0.86
			l-33.75-53.18C320.88,621.74,321.67,621.17,322.41,620.54z M370.16,637.86c11.22-6.5,20.4-12.76,31.7-19.13
			c0.89,0.99,1.88,1.89,2.97,2.68l-36.64,54.9c-2.21-1.12-4.68-1.8-7.31-1.93l-0.18-18.26c6.76-0.1,10.6-8.86,10.6-12.93
			S370.89,639.49,370.16,637.86z"/>
		<path id="path6" class="st1" d="M359.95,464.27c9.92,0,17.96,8.04,17.96,17.96c0,4.43-1.61,8.48-4.27,11.62l37.49,57.46
			c1.56-0.42,3.2-0.64,4.89-0.64c10.38,0,18.8,8.42,18.8,18.8c0,10.38-8.42,18.8-18.8,18.8c-8.69,0-16-5.9-18.16-13.91h-69.61
			c-2.16,8.01-9.47,13.91-18.16,13.91c-10.38,0-18.8-8.42-18.8-18.8c0-10.38,8.42-18.8,18.8-18.8c1.14,0,2.26,0.1,3.34,0.3
			l34.4-55.45c-3.6-3.28-5.86-8.02-5.86-13.27C341.99,472.32,350.03,464.27,359.95,464.27z M369.22,527.26
			c2.87,10.5-5.74,19.23-16.23,16.36C363.77,543.78,369.73,537.01,369.22,527.26z M318.24,583.55
			c-12.68,6.27-25.97-2.55-24.91-16.65C295.8,580.7,305.93,586.63,318.24,583.55z M425.73,556.14c11,8.9,8.55,24.66-4.71,29.59
			C432.52,577.71,433.67,566.03,425.73,556.14z M356.34,466.45c14.07-1.46,23.46,11.43,17.56,24.28
			C376.39,476.93,368.95,467.85,356.34,466.45z M347.29,540.93c-6.55,5.89-14.95,12.44-21.72,17.84c1.74,2.51,2.88,5.45,3.23,8.64
			h68.54c0.23-2.15,0.83-4.19,1.73-6.06c-10.93-6.99-20.13-13.87-30.59-20.96c-2.49,3.24-6.53,5.33-10.81,5.33
			C353.38,545.71,349.79,543.85,347.29,540.93z M322.41,555.25c7.24-5.13,16.18-11.33,23.07-17.04
			c-4.19-8.31,1.29-18.11,10.76-19.48l0.98-18.74c-1.18-0.18-2.33-0.48-3.43-0.88l-33.75,54.39
			C320.88,554.03,321.67,554.61,322.41,555.25z M370.16,537.53c11.22,6.65,20.4,13.05,31.7,19.57c0.89-1.02,1.88-1.93,2.97-2.74
			l-36.64-56.16c-2.21,1.14-4.68,1.84-7.31,1.97l-0.18,18.68c6.76,0.1,10.6,9.06,10.6,13.23
			C371.29,536.24,370.89,535.86,370.16,537.53z"/>
	</g>
	<g id="XMLID_84_">
		<g>
			<g>
				<path class="st2" d="M413.32,478.36c0.51-3.61,3.06-7.72,9.52-7.72c6.2,0,9.2,3.42,9.2,7.25c0,3.2-1.59,4.61-3.46,5.51v0.11
					c1.89,0.67,4.41,2.45,4.41,6.58c0,4.28-2.72,8.81-10.26,8.74c-6.45-0.07-9.68-4.02-9.97-8.07h5.62
					c0.46,1.83,1.59,3.58,4.58,3.58c2.84,0,4.26-1.61,4.26-4.14c0-2.59-1.04-4.33-4.78-4.33h-1.99v-4.38h1.86
					c2.75,0,4.05-0.79,4.05-3.08c0-1.86-1.04-3.33-3.57-3.33c-2.86,0-3.65,1.74-3.97,3.26H413.32z"/>
				<path class="st2" d="M455.52,477.64c-0.33-1.34-1.22-2.65-3.69-2.65c-3.85-0.01-4.79,3.97-4.94,7.6
					c1.12-1.42,3.02-2.68,6.29-2.68c5.09,0,8.61,3.58,8.61,9c0,5.64-3.42,9.93-10.05,9.93c-7.79,0-10.54-5.62-10.54-13.77
					c0-6.02,2.02-14.42,10.81-14.42c6.13,0,8.6,3.64,9.07,7H455.52z M456.05,489.34c0-2.68-1.11-4.91-4.36-4.91
					c-2.58,0-4.32,1.36-4.32,4.62c0,2.63,1.25,5.23,4.3,5.23C454.48,494.28,456.05,492.37,456.05,489.34z"/>
				<path class="st2" d="M488.54,475.71h-11.3c-0.22,1.97-0.53,4.23-0.71,5.39c1-0.85,2.47-1.44,5-1.44c5.06,0,8.53,3.68,8.53,9.12
					c0,5.71-3.41,10.07-10.27,10.07c-5.28,0-9.27-2.83-9.97-7.85h5.66c0.43,1.76,1.79,3.33,4.36,3.33c3.17,0,4.45-2.01,4.45-5.06
					c0-2.52-0.99-5.1-4.39-5.1c-2.69,0-3.7,1.25-4.34,2.87l-5.21-0.76c0.68-3.27,1.76-11.47,2.11-15.21h16.79L488.54,475.71z"/>
			</g>
		</g>
	</g>
	<g id="XMLID_83_">
		<g>
			<g>
				<path class="st3" d="M445.4,516.82h8.41c4.63,0,6.79,2.44,6.79,5.48c0,2.55-1.46,4.21-3.15,4.78c1.53,0.49,3.87,2.03,3.87,5.25
					c0,4.13-3.15,6.42-7.31,6.42h-8.62V516.82z M453.26,525.94c3.18,0,4.41-1.25,4.41-3.39c0-1.94-1.39-3.33-3.96-3.33h-5.45v6.71
					H453.26z M448.25,536.34h5.42c2.75,0,4.67-1.29,4.67-4.03c0-2.38-1.53-3.98-5.22-3.98h-4.86V536.34z"/>
				<path class="st3" d="M472.29,516.82v13.19c0,5.18,2.84,6.58,5.65,6.58c3.29,0,5.6-1.51,5.6-6.58v-13.19h2.93v13.04
					c0,7.11-3.93,9.16-8.59,9.16c-4.57,0-8.53-2.21-8.53-8.95v-13.25H472.29z"/>
				<path class="st3" d="M497.18,532.64c0.59,2.63,2.39,4.05,5.57,4.05c3.42,0,4.77-1.6,4.77-3.67c0-2.2-1.08-3.43-5.48-4.49
					c-5.17-1.25-6.96-3.02-6.96-6.11c0-3.26,2.4-5.91,7.3-5.91c5.22,0,7.37,3.02,7.66,5.9h-2.96c-0.39-1.95-1.61-3.55-4.81-3.55
					c-2.67,0-4.17,1.2-4.17,3.29c0,2.06,1.24,2.87,5.08,3.8c6.25,1.52,7.36,3.96,7.36,6.77c0,3.54-2.62,6.31-7.98,6.31
					c-5.51,0-7.89-3.01-8.34-6.38H497.18z"/>
				<path class="st3" d="M521.58,516.82v21.92h-2.91v-21.92H521.58z"/>
				<path class="st3" d="M531.12,538.75v-21.92h3.85c3.14,5.13,9.98,16.03,11.21,18.41h0.04c-0.21-2.81-0.19-6.27-0.19-9.85v-8.56
					h2.75v21.92h-3.61c-2.9-4.76-10.03-16.49-11.4-18.95h-0.04c0.16,2.5,0.16,6.21,0.16,10.17v8.78H531.12z"/>
				<path class="st3" d="M572.09,528.5h-10.9v7.76h11.97l-0.38,2.49h-14.45v-21.92h14.28v2.49h-11.43v6.69h10.9V528.5z"/>
				<path class="st3" d="M582.3,532.64c0.59,2.63,2.39,4.05,5.57,4.05c3.42,0,4.77-1.6,4.77-3.67c0-2.2-1.08-3.43-5.48-4.49
					c-5.17-1.25-6.96-3.02-6.96-6.11c0-3.26,2.4-5.91,7.3-5.91c5.22,0,7.37,3.02,7.66,5.9h-2.96c-0.39-1.95-1.61-3.55-4.81-3.55
					c-2.67,0-4.17,1.2-4.17,3.29c0,2.06,1.24,2.87,5.08,3.8c6.25,1.52,7.36,3.96,7.36,6.77c0,3.54-2.62,6.31-7.98,6.31
					c-5.51,0-7.89-3.01-8.34-6.38H582.3z"/>
				<path class="st3" d="M605.17,532.64c0.59,2.63,2.39,4.05,5.57,4.05c3.42,0,4.77-1.6,4.77-3.67c0-2.2-1.08-3.43-5.48-4.49
					c-5.17-1.25-6.96-3.02-6.96-6.11c0-3.26,2.4-5.91,7.3-5.91c5.22,0,7.37,3.02,7.66,5.9h-2.96c-0.39-1.95-1.61-3.55-4.81-3.55
					c-2.67,0-4.17,1.2-4.17,3.29c0,2.06,1.24,2.87,5.08,3.8c6.25,1.52,7.36,3.96,7.36,6.77c0,3.54-2.62,6.31-7.98,6.31
					c-5.51,0-7.89-3.01-8.34-6.38H605.17z"/>
			</g>
		</g>
	</g>
	<g id="XMLID_82_">
		<g id="XMLID_22_">
			<path class="st3" d="M472.92,556.83h8.61c6.33,0,10.46,4.17,10.46,10.59c0,6.34-4.01,11.13-10.66,11.13h-8.42V556.83z
				 M477.62,574.76h3.52c4.16,0,6.01-3.1,6.01-7.33c0-3.55-1.72-6.81-5.98-6.81h-3.55V574.76z"/>
			<path class="st3" d="M514.84,569.19h-10.39v5.52h11.46l-0.56,3.85h-15.46v-21.72h15.4v3.85h-10.85v4.66h10.39V569.19z"/>
			<path class="st3" d="M528.24,578.55l-7.67-21.72h5.05l3.23,10.03c0.98,3.04,1.73,5.61,2.23,7.83h0.06
				c0.45-2.03,1.29-4.68,2.33-7.76l3.39-10.11h4.79l-7.87,21.72H528.24z"/>
			<path class="st3" d="M562.97,569.19h-10.39v5.52h11.46l-0.56,3.85h-15.46v-21.72h15.4v3.85h-10.85v4.66h10.39V569.19z"/>
			<path class="st3" d="M571.28,556.83h4.7v17.87h10.82l-0.54,3.85h-14.98V556.83z"/>
			<path class="st3" d="M613.51,567.62c0,6.05-3.63,11.25-10.69,11.25c-6.82,0-10.39-4.96-10.39-11.18
				c0-6.32,3.94-11.18,10.69-11.18C609.49,556.52,613.51,560.97,613.51,567.62z M597.29,567.6c0,4.24,1.86,7.45,5.71,7.45
				c4.18,0,5.66-3.5,5.66-7.37c0-4.11-1.68-7.34-5.73-7.34C599.01,560.34,597.29,563.37,597.29,567.6z"/>
			<path class="st3" d="M621.4,556.83h8.99c4.62,0,7.75,2.6,7.75,6.73c0,4.72-3.57,6.88-7.86,6.88h-4.18v8.11h-4.7V556.83z
				 M626.1,566.7h3.58c2.17,0,3.71-0.84,3.71-3.05c0-2.24-1.62-3.08-3.61-3.08h-3.68V566.7z"/>
			<path class="st3" d="M663.96,570.41c0-3.71,0.06-7.86,0.15-10.32h-0.15c-1.02,4.43-3.19,11.67-5.28,18.47h-4
				c-1.58-5.94-3.83-14.19-4.78-18.53h-0.15c0.19,2.55,0.28,7.02,0.28,10.74v7.78h-4.28v-21.72h6.99c1.69,5.68,3.59,12.8,4.25,16.03
				h0.04c0.53-2.86,2.92-10.47,4.73-16.03h6.74v21.72h-4.53V570.41z"/>
			<path class="st3" d="M692.39,569.19H682v5.52h11.46l-0.56,3.85h-15.46v-21.72h15.4v3.85H682v4.66h10.39V569.19z"/>
			<path class="st3" d="M700.69,578.55v-21.72h5.82c2.71,4.88,7.73,13.67,8.73,16.04h0.06c-0.25-2.27-0.24-6.04-0.24-9.6v-6.44h4.26
				v21.72h-5.52c-2.33-4.24-7.89-14.35-8.97-16.86h-0.06c0.16,1.9,0.21,6.36,0.21,10.25v6.61H700.69z"/>
			<path class="st3" d="M732.6,560.68H726v-3.85h17.88v3.85h-6.58v17.87h-4.7V560.68z"/>
		</g>
	</g>
</g>
</svg>
